<?xml version="1.0" standalone="no"?>
<!DOCTYPE svg PUBLIC "-//W3C//DTD SVG 20010904//EN"
 "http://www.w3.org/TR/2001/REC-SVG-20010904/DTD/svg10.dtd">
<svg version="1.0" xmlns="http://www.w3.org/2000/svg"
 width="512.000000pt" height="512.000000pt" viewBox="0 0 512.000000 512.000000"
 preserveAspectRatio="xMidYMid meet">

<g transform="translate(0.000000,512.000000) scale(0.100000,-0.100000)"
fill="#000000" stroke="none">
<path d="M132 4894 c-57 -28 -97 -73 -118 -131 -11 -31 -13 -315 -14 -1561 l0
-1523 25 -24 c31 -32 69 -32 100 0 l25 24 0 1246 0 1245 530 0 530 0 0 -1585
0 -1585 -501 0 -501 0 -29 29 -29 29 0 187 c0 184 0 186 -25 210 -13 14 -36
25 -50 25 -14 0 -37 -11 -50 -25 -25 -24 -25 -26 -25 -211 0 -114 5 -202 12
-226 15 -49 76 -120 125 -144 36 -18 95 -19 1467 -24 l1429 -5 73 -125 73
-125 1 -78 c0 -57 5 -88 20 -117 22 -44 37 -55 175 -135 137 -80 178 -83 289
-26 l80 41 203 0 204 0 79 -41 c110 -58 148 -54 289 26 173 98 191 120 198
254 l6 86 104 182 c100 174 107 184 157 213 120 68 136 102 136 290 0 188 -16
222 -136 291 -49 28 -58 40 -138 179 l-86 149 0 1418 c0 1350 -1 1420 -19
1458 -20 46 -79 101 -127 121 -27 11 -151 14 -658 14 l-625 0 -20 -26 c-34
-43 -26 -86 20 -109 24 -13 121 -15 629 -15 l601 0 24 -25 c25 -24 25 -25 25
-225 l0 -200 -2230 0 -2230 0 0 190 c0 198 5 229 44 249 15 8 423 12 1464 14
l1444 2 19 24 c26 32 24 73 -4 99 l-23 22 -1455 0 -1455 0 -52 -26z m4478
-1674 c0 -522 -3 -950 -6 -950 -4 0 -47 23 -97 52 -127 72 -169 75 -277 19
l-79 -41 -205 0 -204 0 -77 41 c-69 38 -81 41 -133 37 -47 -4 -75 -15 -157
-63 -138 -80 -153 -91 -175 -135 -15 -29 -20 -59 -20 -115 l0 -76 -107 -185
c-107 -185 -107 -186 -177 -233 -39 -25 -81 -61 -93 -79 -28 -42 -37 -115 -31
-251 5 -125 18 -156 87 -208 l43 -33 -771 0 -771 0 0 1578 c0 868 3 1582 7
1585 3 4 735 7 1625 7 l1618 0 0 -950z m-985 -1027 l70 -38 251 0 250 0 72 38
c39 20 77 37 84 37 6 0 56 -25 110 -56 108 -62 105 -57 111 -174 l3 -75 113
-195 c62 -107 121 -204 130 -214 9 -10 46 -38 84 -62 l67 -44 0 -120 0 -120
-67 -44 c-38 -24 -75 -52 -84 -62 -9 -10 -68 -107 -130 -214 l-113 -195 -3
-75 c-6 -117 -3 -112 -111 -174 -54 -31 -104 -56 -110 -56 -7 0 -45 17 -84 37
l-72 38 -250 0 -251 0 -70 -38 c-38 -20 -76 -37 -85 -37 -8 0 -58 26 -110 58
l-95 57 -7 86 c-7 98 -4 90 -140 325 -108 188 -125 210 -203 254 -29 17 -56
37 -59 46 -3 9 -6 63 -6 120 0 118 -1 116 92 172 61 38 72 52 207 289 98 171
110 203 111 298 l0 60 98 57 c53 31 104 57 112 58 9 0 47 -17 85 -37z"/>
<path d="M1981 3654 c-179 -48 -324 -214 -351 -403 -45 -318 230 -593 549
-550 87 12 158 47 220 106 59 57 66 89 26 128 -32 33 -74 33 -106 -1 -115
-123 -321 -115 -451 18 -112 115 -123 306 -26 432 44 58 81 85 151 114 87 35
190 29 280 -17 70 -36 106 -35 132 2 34 48 10 94 -68 134 -106 54 -242 68
-356 37z"/>
<path d="M2602 3648 l-22 -24 0 -442 c0 -429 1 -443 20 -462 30 -30 73 -30
105 1 18 17 21 36 25 185 l5 166 160 -182 c88 -100 170 -186 183 -191 51 -20
113 42 93 93 -5 12 -64 84 -130 160 -67 75 -121 139 -121 142 0 3 8 6 18 6 35
0 118 48 159 93 56 61 75 108 76 189 0 112 -57 202 -166 260 -38 21 -59 23
-212 26 -168 4 -170 3 -193 -20z m348 -146 c23 -12 43 -35 58 -64 20 -40 22
-52 13 -85 -13 -47 -55 -90 -102 -103 -18 -6 -69 -10 -111 -10 l-78 0 0 140 0
140 93 0 c70 0 101 -4 127 -18z"/>
<path d="M3520 3657 c-8 -7 -20 -19 -27 -27 -7 -9 -46 -206 -89 -439 -82 -454
-82 -459 -30 -482 32 -15 72 -4 90 24 8 12 33 126 56 252 49 276 61 338 65
333 2 -2 40 -127 84 -278 45 -151 87 -286 94 -299 25 -50 106 -60 145 -17 13
13 50 127 103 313 45 161 84 292 85 290 1 -1 25 -126 54 -277 28 -151 56 -287
61 -301 10 -25 45 -49 73 -49 29 0 66 41 66 73 0 18 -35 216 -78 441 -75 388
-80 411 -106 433 -44 37 -112 28 -137 -19 -6 -11 -51 -158 -98 -326 -48 -168
-90 -301 -93 -296 -3 5 -45 146 -94 312 -98 334 -106 352 -173 352 -20 0 -43
-6 -51 -13z"/>
<path d="M3770 1961 c-133 -38 -247 -106 -332 -201 -336 -372 -195 -947 274
-1122 71 -27 100 -32 203 -35 89 -4 138 -1 190 11 151 36 325 148 325 210 0
34 -41 76 -73 76 -13 0 -44 -15 -68 -34 -103 -78 -213 -116 -339 -116 -218 0
-396 110 -489 302 -79 163 -79 313 0 476 93 192 271 302 489 302 150 0 274
-52 381 -159 140 -141 189 -328 138 -530 -21 -83 -21 -84 -2 -110 22 -29 69
-39 102 -21 38 20 66 138 66 280 0 111 -3 135 -29 214 -73 221 -262 400 -482
456 -101 26 -262 26 -354 1z"/>
<path d="M302 4613 c-7 -3 -19 -18 -28 -35 -13 -25 -13 -35 -3 -59 16 -41 36
-49 119 -49 62 0 74 3 95 25 32 31 32 69 0 100 -21 22 -32 25 -97 24 -40 0
-79 -3 -86 -6z"/>
<path d="M705 4595 c-34 -33 -33 -77 1 -104 22 -17 41 -21 98 -21 43 1 78 6
88 14 40 30 39 92 0 122 -10 8 -46 13 -90 14 -64 0 -76 -3 -97 -25z"/>
<path d="M1132 4613 c-7 -3 -19 -18 -28 -35 -13 -25 -13 -35 -3 -59 16 -41 36
-49 119 -49 62 0 74 3 95 25 14 13 25 36 25 50 0 14 -11 37 -25 50 -21 22 -32
25 -97 24 -40 0 -79 -3 -86 -6z"/>
<path d="M480 3853 c-33 -12 -50 -37 -50 -74 0 -66 13 -69 256 -69 l213 0 20
26 c28 36 26 60 -8 95 l-29 29 -194 -1 c-106 0 -200 -3 -208 -6z"/>
<path d="M480 3393 c-33 -13 -50 -37 -50 -73 0 -68 8 -70 253 -70 l216 0 20
26 c27 35 26 57 -3 91 l-24 28 -199 2 c-109 1 -205 -1 -213 -4z"/>
<path d="M485 2933 c-36 -9 -55 -34 -55 -73 0 -68 8 -70 253 -70 l216 0 20 26
c27 35 26 57 -3 91 l-24 28 -194 2 c-106 1 -202 -1 -213 -4z"/>
<path d="M447 2452 c-24 -27 -22 -85 4 -108 19 -17 39 -19 231 -19 l210 0 24
28 c29 34 30 56 3 91 l-20 26 -218 0 c-198 0 -219 -2 -234 -18z"/>
<path d="M447 1992 c-24 -27 -22 -85 4 -108 19 -17 39 -19 231 -19 l210 0 24
28 c29 34 30 56 3 91 l-20 26 -218 0 c-198 0 -219 -2 -234 -18z"/>
</g>
</svg>
